<svg xmlns="http://www.w3.org/2000/svg" viewBox="0 0 1650.77 686.58"><defs><style>.cls-1,.cls-2{fill:#1d1d1b;}.cls-2{fill-rule:evenodd;}</style></defs><g id="Layer_2" data-name="Layer 2"><g id="Calque_1" data-name="Calque 1"><path class="cls-1" d="M1286.78,312.11V429.9h210.47l-.08,79.53a29.7,29.7,0,0,1-29.7,29.66H1125.85a54.27,54.27,0,0,1-48.27-29.47l-38.47-74.89q55-28,85.93-81.1t30.89-124.55q0-53.09-17.38-94.62T1089.31,64q-31.86-29-76.75-43.94t-99.93-15H617.19l.14.68a26.72,26.72,0,0,0-17.52,12.88L386.4,394.92a3,3,0,0,1-2.64,1.54h-.32a3,3,0,0,1-2.67-1.59L176,19.06a26.75,26.75,0,0,0-23.51-14H26.77A26.78,26.78,0,0,0,0,31.86V659.81a26.77,26.77,0,0,0,26.77,26.77h110a26.76,26.76,0,0,0,26.77-26.77V316.74a3,3,0,0,1,5.73-1.41L310.82,583.71A26.78,26.78,0,0,0,334.5,598h82.64a26.78,26.78,0,0,0,22.93-13L603.6,313.71l91.54-163,89.08-.79h109.1q51.15,0,78.69,21.73T999.52,232q0,44.41-28,69.51T894.29,326.6H784.22l52.89,137.09H875L960.86,641a70.82,70.82,0,0,0,63.74,39.95h626.17V312.11Z"/><path class="cls-1" d="M1285.16,135.41a8.5,8.5,0,0,0,8.25,6.43h346.44a8.51,8.51,0,0,0,8.25-10.59L1616.58,6.42A8.52,8.52,0,0,0,1608.33,0H1261.89a8.51,8.51,0,0,0-8.25,10.59Z"/><path class="cls-2" d="M682.82,686.58A81.15,81.15,0,1,1,764,605.43,81.15,81.15,0,0,1,682.82,686.58Z"/></g></g></svg>