<svg xmlns="http://www.w3.org/2000/svg" viewBox="0 0 1651 686.58"><defs><style>.cls-1,.cls-2{fill:#fff;}.cls-2{fill-rule:evenodd;}</style></defs><g id="Layer_2" data-name="Layer 2"><g id="Layer_1-2" data-name="Layer 1"><path class="cls-1" d="M1288,312V430h210l-.09,79.34A29.7,29.7,0,0,1,1468.22,539H1126.6a54.29,54.29,0,0,1-48.28-29.47l-38.47-74.89q55-28,85.93-81.1T1156.67,229q0-53.09-17.37-94.62T1090.06,63.9q-31.86-29-76.76-43.94T913.37,5H617.55l.14.68a26.71,26.71,0,0,0-17.51,12.87L387,394.46a3,3,0,0,1-2.65,1.54H384a3.05,3.05,0,0,1-2.67-1.58L176.81,19A26.73,26.73,0,0,0,153.32,5H26.77A26.78,26.78,0,0,0,0,31.77V659.23A26.78,26.78,0,0,0,26.77,686H137.23A26.78,26.78,0,0,0,164,659.23V317.07a3.14,3.14,0,0,1,1.91-3,3,3,0,0,1,3.81,1.41L311.17,583.73A26.75,26.75,0,0,0,334.84,598h82.58a26.75,26.75,0,0,0,22.91-12.94L603.76,313.9,695.24,151l89.48-1h109q51.24,0,78.83,21.76t27.56,60.45q0,44.5-28,69.64T894.7,327h-110L837.6,464h38l85.77,177.06A70.83,70.83,0,0,0,1025.07,681H1651V312Z"/><path class="cls-1" d="M1285.47,135.57a8.52,8.52,0,0,0,8.26,6.43h346.85a8.5,8.5,0,0,0,8.24-10.59l-31.55-125A8.52,8.52,0,0,0,1609,0H1262.18a8.52,8.52,0,0,0-8.26,10.6Z"/><path class="cls-2" d="M683.33,686.58a81.15,81.15,0,1,1,81.15-81.15A81.15,81.15,0,0,1,683.33,686.58Z"/></g></g></svg>